<?xml version="1.0" encoding="utf-8"?>
<!-- Uploaded to: SVG Repo, www.svgrepo.com, Generator: SVG Repo Mixer Tools -->
<svg width="800px" height="800px" viewBox="-137.55 0 442.537 442.537" xmlns="http://www.w3.org/2000/svg"><defs><style>.a{fill:#7a7473;}.b{fill:#211715;}.c{fill:#b3b3b3;}.d{fill:#ffffff;}.e{fill:#85807f;}.f{fill:#3d8dcc;}</style></defs><path class="a" d="M120.374,433.53c-2.916-2.391-5.716-4.785-9.008-7.219-1.633-1.207-3.665-2.043-5.217-3.354a9.156,9.156,0,0,1-2.1-2.8c-1.83-3.487-1.668-9.993-.972-13.87,0,0,.072-.4.2-1.092,4.525.519,10.179.776,14.211.817a53.527,53.527,0,0,0,9.745-.953l1.794,2.818c1.3,1.46,3.728,4.377,5.136,5.735,4.2,4.048,5.707,5.969,8.76,9.354,2.346,2.6,4.405,7.819,3.811,11.482-.458,2.826-3.175,4.373-5.824,5.46a21.245,21.245,0,0,1-7.72.4,20.909,20.909,0,0,1-9.093-3.813C122.8,435.506,121.579,434.518,120.374,433.53Z"/><path class="a" d="M75.915,433.321c2.9-2.267,5.634-4.568,9.839-6.242,2.153-.857,4.406-1.178,6.055-2.805a8.683,8.683,0,0,0,2.045-4.091,33.446,33.446,0,0,0,.132-13.561s-.116-.57-.3-1.512a146.128,146.128,0,0,1-14.97.9,54.749,54.749,0,0,1-10.7-1.131l-3.1,4.929-13.68,15.274c-6.725,6.9-4.42,13.873,3.383,15.131a21.378,21.378,0,0,0,12.1-1.815,29.761,29.761,0,0,0,6.774-3.255C74.333,434.548,75.13,433.936,75.915,433.321Z"/><path class="b" d="M125.5,406.073c2.635,4.9,7.144,8.659,10.9,12.645,3.814,4.043,9.068,8.944,8.4,15.093-.26,2.4-3.212,4.006-5.369,4.419a17.92,17.92,0,0,1-8.434-.5c-3.645-1.08-6.413-3.321-9.306-5.695-3.17-2.6-6.273-5.359-9.651-7.691-1.59-1.1-3.536-1.82-4.907-3.205a8.524,8.524,0,0,1-2.093-4.185,26.5,26.5,0,0,1-.039-10.134,2.058,2.058,0,0,0-1.4-2.46,2.016,2.016,0,0,0-2.46,1.4c-1.173,6.76-1.238,15.56,5.146,19.774,1.749,1.154,3.566,2.11,5.238,3.387,1.778,1.358,3.5,2.783,5.227,4.208,3.246,2.683,6.446,5.735,10.352,7.422,6.016,2.6,14.4,3.244,19.45-1.758,2.733-2.707,2.6-6.654,1.583-10.11-1.052-3.589-3.057-6.259-5.493-9.01-2.494-2.816-5.151-5.435-7.75-8.149a36.2,36.2,0,0,1-5.947-7.47c-1.22-2.267-4.675-.25-3.454,2.019Z"/><path class="b" d="M92.058,407.154a31.725,31.725,0,0,1,.043,11.54,8.183,8.183,0,0,1-1.483,3.929c-1.03,1.251-2.792,1.619-4.25,2.113a31.033,31.033,0,0,0-8.58,4.62c-2.608,1.945-5.03,4.184-7.978,5.617-3.265,1.587-6.972,3.116-10.617,3.413-2.706.222-6,.064-8.208-1.738-5.041-4.12,1.823-10.2,4.539-13.239,2.921-3.267,5.787-6.582,8.71-9.846a40.361,40.361,0,0,0,5.312-7.672c1.228-2.263-2.224-4.285-3.454-2.019a38.59,38.59,0,0,1-5.156,7.387c-2.871,3.206-5.675,6.473-8.554,9.671-2.6,2.893-5.6,5.545-6.711,9.421a8.87,8.87,0,0,0,1.606,8.224c2.138,2.562,5.511,3.537,8.716,3.809,4.359.371,8.3-.9,12.293-2.453a30.641,30.641,0,0,0,5.665-2.688c1.473-.954,2.839-2.083,4.216-3.166a31.565,31.565,0,0,1,9.073-5.418c2.007-.69,4.056-1.265,5.686-2.7a9.772,9.772,0,0,0,2.822-5.088,35.858,35.858,0,0,0,.167-14.784c-.5-2.523-4.352-1.455-3.857,1.064Z"/><path class="c" d="M98.208,211.713a.714.714,0,0,0-1.406.038,90.76,90.76,0,0,1-1.989,9.781,17.924,17.924,0,0,1-6.806,9.5c-2.34,1.733-7.073,3.627-12.437,4.457a106.651,106.651,0,0,1-19.077.7c.086,2.144.5,13,.5,13,2.217,53.845,3.4,102.324,5.51,154.331a58.673,58.673,0,0,0,16.159,2.493c5.846-.057,15.116-.569,19.394-1.675,4.281,1.107,13.531,1.621,19.374,1.68a58.861,58.861,0,0,0,16.156-2.5c2.107-51.876,3.281-100.237,5.5-153.919l.517-13.781s0-.045.008-.134c-7.139.432-16.336.732-21.715-.146-4.805-.784-8.089-1.691-11.13-4.249a19.342,19.342,0,0,1-6.425-9.345A98.5,98.5,0,0,1,98.208,211.713Z"/><path class="b" d="M97.524,406.265c5.6,1.406,11.654,1.544,17.4,1.7a59.611,59.611,0,0,0,19.2-2.518,2.063,2.063,0,0,0,1.469-1.929c1.012-24.953,1.838-49.913,2.661-74.873.836-25.356,1.681-50.711,2.712-76.06.227-5.589.43-11.178.639-16.767.1-2.575-3.9-2.571-4,0-.633,16.889-1.324,33.775-1.924,50.666-.885,24.921-1.659,49.846-2.518,74.768q-.728,21.135-1.57,42.266l1.468-1.928a56.033,56.033,0,0,1-18.136,2.375c-5.395-.149-11.075-.24-16.336-1.56-2.5-.626-3.563,3.23-1.063,3.857Z"/><path class="b" d="M97.519,402.411c-5.263,1.317-10.945,1.4-16.34,1.553a56.028,56.028,0,0,1-18.14-2.373l1.469,1.928c-1.007-24.862-1.832-49.73-2.653-74.6-.833-25.253-1.674-50.507-2.694-75.753q-.351-8.673-.679-17.346c-.1-2.566-4.1-2.579-4,0,.656,16.988,1.346,33.976,1.948,50.966.88,24.828,1.653,49.66,2.509,74.489q.727,21.123,1.569,42.243a2.065,2.065,0,0,0,1.468,1.929,59.6,59.6,0,0,0,19.2,2.516c5.746-.157,11.8-.293,17.4-1.695,2.5-.625,1.438-4.484-1.064-3.858Z"/><path class="b" d="M96.048,257.941q.013,8.669.006,17.337,0,16.617,0,33.235,0,19.476,0,38.953l0,34.825,0,20.79v1.1c0,2.574,4,2.578,4,0q0-9.165,0-18.33,0-16.873,0-33.746,0-19.491,0-38.982,0-17.188,0-34.375,0-9.929-.006-19.857c0-.315,0-.631,0-.946,0-2.574-4-2.578-4,0Z"/><path class="d" d="M97.039,96.158h-.99c-2.194,2.468-6.781,8.835-7.889,10.311-3.449-2.21-8.543-10.325-9.154-11.48C83,110.953,94.2,148.411,96.924,155.88c2.534-4.385,14.044-44.467,18.092-60.916-.546,1.056-5.692,9.279-9.167,11.5-1.107-1.476-5.694-7.843-7.889-10.311Z"/><path class="d" d="M124.5,63.971a30.138,30.138,0,0,1-1.857,5.681c-.972,2.638-6.342,11.887-13.137,15.494.1,1.3.27,2.594.5,3.892.356,2.034.245,3.847,3.075,4.87.184.067,8.2,3.883,8.489,4,0,0-6.632,15.181-27.891,15.181S70.439,98.342,70.439,98.342c.551-.183,9.494-4.367,9.677-4.434,2.83-1.023,2.708-2.836,3.075-4.87.2-1.178.362-2.263.459-3.4a25.3,25.3,0,0,1-9.162-7.316A34.189,34.189,0,0,1,68,66.078a4.866,4.866,0,0,1-4.136-1.036,13.586,13.586,0,0,1-3.988-6.469c-.855-2.518-.909-6.589.365-8.8a4.171,4.171,0,0,1,3.748-2.082,4.494,4.494,0,0,1,3.251,1.19S63.833,21.578,96.005,21.578c35.529,0,28.765,27.305,28.765,27.305a4.494,4.494,0,0,1,3.251-1.19,4.173,4.173,0,0,1,3.749,2.082c1.273,2.209,1.22,6.28.365,8.8a13.6,13.6,0,0,1-3.989,6.469,4.956,4.956,0,0,1-3.822,1.1"/><path class="b" d="M122.572,63.44a29.054,29.054,0,0,1-1.311,4.367c-.193.508-.354.841-.584,1.41-.2.507.137-.275-.035.087-.063.132-.123.265-.186.4a37.133,37.133,0,0,1-3.2,5.326c-2.786,3.947-6.6,8.256-11.493,9.407-2.5.589-1.445,4.446,1.063,3.857,5.778-1.358,10.224-6.183,13.572-10.809a38.088,38.088,0,0,0,3.477-5.691c.206-.427.391-.862.574-1.3.217-.518-.146.343.082-.187.149-.347.3-.694.435-1.045a29.072,29.072,0,0,0,1.462-4.756c.524-2.512-3.331-3.586-3.857-1.063Z"/><path class="b" d="M65.5,64.4C67.98,75.284,76.169,87.15,87.932,88.924a2.065,2.065,0,0,0,2.46-1.4,2.016,2.016,0,0,0-1.4-2.46C78.525,83.488,71.558,73,69.355,63.337c-.572-2.508-4.429-1.447-3.857,1.064Z"/><path class="b" d="M90.394,73.64a12.291,12.291,0,0,0,5.915,1.379,9.736,9.736,0,0,0,6.074-1.836,2,2,0,0,0,0-2.829,2.062,2.062,0,0,0-2.828,0c.689-.537-.038,0-.257.111-.169.089-.626.23,0,.02-.162.054-.319.123-.482.175-.2.066-.413.122-.622.171a4.509,4.509,0,0,0-.725.137c.2-.089.316-.038.013-.008-.132.013-.264.024-.4.032-.318.021-.638.029-.957.027-.287,0-.572-.011-.858-.031-.131-.009-.262-.019-.393-.032l-.223-.025c-.157-.019-.1-.011.175.023-.112.055-.519-.092-.645-.12-.206-.046-.411-.1-.613-.159-.177-.053-.349-.116-.523-.176-.453-.155.416.2,0,.006q-.324-.153-.64-.319a2,2,0,0,0-2.019,3.454Z"/><path class="b" d="M95.049,60.022a26.694,26.694,0,0,1,.624,2.852l-.072-.532a1.732,1.732,0,0,1,.011.394l.071-.531a.914.914,0,0,1-.043.177l.2-.478a.845.845,0,0,1-.063.114l.313-.405a.622.622,0,0,1-.093.092l.4-.313a1.876,1.876,0,0,1-.226.12l.478-.2a1.618,1.618,0,0,1-.381.111l.532-.071a1.523,1.523,0,0,1-.357,0l.531.071c-.134-.018-.267-.051-.4-.069a2.246,2.246,0,0,0-1.542.2,2,2,0,0,0-.717,2.737,1.916,1.916,0,0,0,1.2.919c.355.048.7.136,1.06.152a3.467,3.467,0,0,0,1.621-.395,2.457,2.457,0,0,0,1.328-1.606,3.8,3.8,0,0,0-.014-1.67c-.155-.919-.367-1.829-.6-2.731a2.06,2.06,0,0,0-.919-1.2,2.039,2.039,0,0,0-1.541-.2,2.017,2.017,0,0,0-1.195.919,2.1,2.1,0,0,0-.2,1.541Z"/><path class="b" d="M80.485,51.8c-.476,1.548-.166,5.109,2.767,5.412,3.876-.023,4.082-4.328,2.777-6.353C84.961,49.2,81.82,48.514,80.485,51.8Z"/><path class="b" d="M111.524,51.8c.476,1.548.166,5.109-2.766,5.412-3.876-.023-4.083-4.329-2.778-6.353C107.048,49.2,110.189,48.514,111.524,51.8Z"/><path class="e" d="M121.536,44.142a24,24,0,0,0-2.873-6.637c-2.458-3.331-3.4-4.326-8.292-5.451L93.789,29.56a58.975,58.975,0,0,0-11.374-.375,7.817,7.817,0,0,0-4.305,1.5c-1.579,1.329-2.128,3.513-3.051,5.381-1.6,3.243-5.372,4.917-5.97,8.55a49.375,49.375,0,0,0-.565,5.165l-1.285-.9a4.494,4.494,0,0,0-3.251-1.19,5.236,5.236,0,0,0-1.715.33,44.455,44.455,0,0,1-1.4-11.38c-.239-8.479,2.951-17.028,6.949-20.941a31.962,31.962,0,0,1,6.168-6.423A35.358,35.358,0,0,1,95.877,2.085c7.8,0,15.717,1.835,21.672,8.47l4.593,4.083a25.751,25.751,0,0,1,4.948,5.806c2.33,3.856,3.564,8.707,3.881,16.2a36.942,36.942,0,0,1-1.356,11.337,5.267,5.267,0,0,0-1.594-.287,4.494,4.494,0,0,0-3.251,1.19Z"/><path class="b" d="M68.653,47.469a6.9,6.9,0,0,0-7.517-1.122A6.566,6.566,0,0,0,57.7,50.765a16.5,16.5,0,0,0,2.4,13.022c1.689,2.513,4.356,4.777,7.588,4.358a2.066,2.066,0,0,0,2-2,2.011,2.011,0,0,0-2-2c-2.278.3-3.771-1.589-4.759-3.412a13.211,13.211,0,0,1-1.615-5.024,8.6,8.6,0,0,1,.864-5.252c-.317.5.513-.448.234-.243a2.039,2.039,0,0,1,.968-.441,2.7,2.7,0,0,1,2.448.524c1.915,1.709,4.754-1.11,2.828-2.828Z"/><path class="b" d="M126.184,50.3a2.675,2.675,0,0,1,2.317-.552,2.142,2.142,0,0,1,1.1.469c-.277-.2.544.732.235.243a5.287,5.287,0,0,1,.785,2.12,12.019,12.019,0,0,1,.079,3.132,13.253,13.253,0,0,1-1.616,5.024c-.988,1.822-2.48,3.708-4.759,3.412a2.01,2.01,0,0,0-2,2,2.052,2.052,0,0,0,2,2c5.264.683,8.495-5,9.81-9.26,1.179-3.814,1.132-9.738-2.6-12.18a6.866,6.866,0,0,0-8.179.764c-1.925,1.717.912,4.538,2.828,2.828Z"/><path class="b" d="M118.963,9.141c-8.394-9.2-22.516-10.9-34.046-7.563a36.627,36.627,0,0,0-24.4,23.333,43.783,43.783,0,0,0-.283,23.21c.629,2.495,4.488,1.438,3.857-1.063a40.522,40.522,0,0,1-.38-18.631,29.138,29.138,0,0,1,2.905-7.749,35.735,35.735,0,0,1,4.445-5.862c7.332-8.326,18.462-11.655,29.349-10.5a24.352,24.352,0,0,1,15.729,7.656c1.74,1.906,4.562-.929,2.829-2.828Z"/><path class="b" d="M131.637,48.121a45.154,45.154,0,0,0,0-21.773,26.3,26.3,0,0,0-8.083-13.124c-1.9-1.729-4.737,1.092-2.828,2.829a22.522,22.522,0,0,1,7.054,11.358,40.747,40.747,0,0,1,0,19.647c-.61,2.5,3.247,3.567,3.857,1.063Z"/><path class="b" d="M94.32,27.631a50.788,50.788,0,0,0-9.726-.558c-3.634.074-7.269.676-9.373,3.969-.981,1.537-1.384,3.369-2.392,4.89a36.97,36.97,0,0,1-3.213,3.578,9.884,9.884,0,0,0-2.455,4.576,57.226,57.226,0,0,0-.686,6.333c-.2,2.567,3.8,2.554,4,0a46.245,46.245,0,0,1,.543-5.269,6.615,6.615,0,0,1,1.867-3.3A38.54,38.54,0,0,0,76,38.361a28.754,28.754,0,0,0,2.151-4.343,4.387,4.387,0,0,1,3.268-2.666,18.181,18.181,0,0,1,3.779-.288,46.626,46.626,0,0,1,8.064.424,2.057,2.057,0,0,0,2.46-1.4,2.017,2.017,0,0,0-1.4-2.46Z"/><path class="b" d="M109.839,33.982c.8.187,1.605.387,2.39.641a2.926,2.926,0,0,1,.947.342c-.252-.108-.31-.133-.173-.073.059.026.117.052.176.08q.225.1.444.22.337.18.656.391a1.279,1.279,0,0,1,.327.229c-.251-.373-.206-.17-.05-.031a12.582,12.582,0,0,1,1.173,1.182c.2.238.4.485.593.728-.333-.411-.009-.011.043.058q.165.217.327.436a12.373,12.373,0,0,1,1.032,1.614c.181.343.349.692.508,1.046.05.109.1.219.146.329-.069-.164-.075-.18-.02-.046.086.211.171.423.253.635.369.957.694,1.93,1,2.91a2,2,0,1,0,3.857-1.063,33.706,33.706,0,0,0-2.286-5.83,20.327,20.327,0,0,0-2.621-3.645,10.285,10.285,0,0,0-2.915-2.4,19.264,19.264,0,0,0-4.739-1.613,2,2,0,1,0-1.064,3.857Z"/><path class="b" d="M105.288,29.69a9.469,9.469,0,0,0-3.578-4.939,18.014,18.014,0,0,0-8.928-3.512,2,2,0,0,0-2,2,2.063,2.063,0,0,0,2,2c-.452-.06.178.032.266.047q.3.051.6.112.495.1.983.232.543.146,1.076.327c.147.05.793.18.862.323-.247-.106-.27-.115-.067-.027l.134.06q.23.105.456.217c.27.135.536.277.8.429s.493.3.732.456q.186.123.367.254c.136.1.332.363-.007-.015.326.363.774.645,1.121,1q.222.227.43.467c.077.089.148.183.225.271.1.111-.308-.438-.05-.059a8.035,8.035,0,0,1,.585.964c.034.07.06.146.1.212-.3-.521-.147-.385-.092-.205.046.151.1.3.134.451a2.017,2.017,0,0,0,2.46,1.4,2.042,2.042,0,0,0,1.4-2.46Z"/><path class="b" d="M70.971,100.271c.9-.314,1.765-.765,2.628-1.16q1.995-.914,3.986-1.84c1.043-.483,2.084-.969,3.129-1.45.108-.049.218-.095.324-.148.09-.044.272-.119-.16.066-.517.221-.058.032.075-.021.256-.1.513-.207.761-.327a5.547,5.547,0,0,0,2.47-2.283,8.835,8.835,0,0,0,.837-2.935c.233-1.51.492-3.011.63-4.534a2.008,2.008,0,0,0-2-2,2.052,2.052,0,0,0-2,2,38.265,38.265,0,0,1-.925,5.491c-.06.248.194-.3.035-.1a1.825,1.825,0,0,0-.136.241c-.221.39.167-.107-.08.106a2.307,2.307,0,0,0-.22.212c.216-.247.135-.086.015-.013-.1.062-.2.128-.3.187-.037.022-.452.23-.293.158-.143.065-.7.288-1.021.436-2.221,1.02-4.433,2.058-6.654,3.078q-.864.4-1.73.789l-.551.245c-.453.2.494-.184.12-.053a2.05,2.05,0,0,0-1.4,2.46,2.018,2.018,0,0,0,2.461,1.4Z"/><path class="b" d="M107.532,85.474c.128,1.421.334,2.83.567,4.238a16.442,16.442,0,0,0,.408,2.193,5.508,5.508,0,0,0,1.5,2.486,6.18,6.18,0,0,0,1.341.938,10.692,10.692,0,0,0,1,.435c.655.251-.461-.225-.211-.1,1.971,1.012,4.02,1.9,6.023,2.845.952.45,1.9.917,2.87,1.324a2,2,0,0,0,2.46-1.4,2.063,2.063,0,0,0-1.4-2.46c1,.417.061.01-.172-.1l-1.286-.607q-1.742-.822-3.48-1.647c-.9-.425-1.794-.851-2.694-1.271-.1-.045-.194-.092-.292-.135l-.075-.034c-.145-.064-.336-.144-.483-.2-.049-.02-.371-.164-.08-.027-.186-.088-.364-.186-.542-.291-.055-.032-.346-.227-.123-.069.2.14,0,0-.031-.032-.145-.144-.392-.471-.149-.105-.107-.162-.191-.34-.3-.5-.118-.176.1.168.074.186,0,0-.118-.348-.123-.364-.049-.166-.089-.335-.124-.5-.084-.4-.138-.8-.2-1.207-.2-1.316-.373-2.3-.49-3.594a2.043,2.043,0,0,0-2-2,2.022,2.022,0,0,0-2,2Z"/><path class="c" d="M143.863,209.4c.979,9.419,1.72,17.238,2.271,24.573a1.249,1.249,0,0,1-1.153,1.345c-7.077.541-20.2,1.346-27.085.223-4.805-.784-8.089-1.691-11.13-4.249a19.342,19.342,0,0,1-6.425-9.345,98.113,98.113,0,0,1-2.127-10.2.714.714,0,0,0-1.412,0,90.76,90.76,0,0,1-1.989,9.781,17.924,17.924,0,0,1-6.806,9.5c-2.34,1.733-7.073,3.627-12.437,4.457a108.226,108.226,0,0,1-23.3.385,1.37,1.37,0,0,1-1.222-1.477c.711-8.59,1.307-15.08,2.618-26.86.829-9.29,1.7-18.4,2.544-25.113.217-4.083.336-8.162.374-12.267-10.161,0-25.072,0-25.072,0,1.779-16.751,3.1-25.516,8.259-45.225,1.468-6.349,3.632-12.386,8.5-16.315a67.605,67.605,0,0,1,6.464-3.864c4.718-2.4,11.931-6,16.246-7.666l.186-.071a57.448,57.448,0,0,1,7.041-5.36c2.828,12.56,14.49,51.84,18.187,62.717h1.216c3.769-9.3,15.358-50.157,18.186-62.717.9.578,1.973,1.313,3.1,2.148l2.47.95c4.405,1.695,15.619,5.468,20.419,7.912a53.54,53.54,0,0,1,5.7,3.52c4.87,3.929,7.321,9.334,8.789,15.683,5.16,19.709,7.345,29.022,9.124,45.774a29.79,29.79,0,0,1-.875,10.069,17.41,17.41,0,0,1-5.25,8.5,19,19,0,0,1-11.986,4.527c-1.709.054-3.418.067-5.118.045.54,5.668,1.05,12.079,1.691,18.62"/><path class="f" d="M93.462,145.216c-1.177-3.792-2.526-8.231-3.93-12.931,1.531-10.792,3.178-22.239,3.168-22.837a12.1,12.1,0,0,0-.707-3.372,18.652,18.652,0,0,0-.894-2.91s-.075-.152-.2-.4c1.75-2.359,3.865-5.155,5.154-6.605H97.96c1.291,1.451,3.408,4.25,5.159,6.61-.017.048-.023.073-.023.073-.365,1.5-.423,2.225-.736,3.64-.059.285-.124.569-.2.854a8.465,8.465,0,0,0-.292,1.9c0,.362,1.621,12.852,2.815,23.137-2.9,9.787-5.59,18.335-7.073,22H96.4C95.678,152.258,94.659,149.071,93.462,145.216Z"/><path class="b" d="M55.666,207.538c.51-5.705,1.034-11.409,1.631-17.106.255-2.428.523-4.856.822-7.279.309-2.507.3-5.083.367-7.607.291-10.588-.023-21.183-.591-31.756-.349-6.508-.792-13.009-1.261-19.509-.184-2.552-4.185-2.572-4,0,.8,11.136,1.54,22.282,1.833,33.444.137,5.222.175,10.446.07,15.668q-.078,3.873-.262,7.742c-.116,2.392-.49,4.775-.749,7.156-.7,6.408-1.286,12.827-1.86,19.247a2.016,2.016,0,0,0,2,2,2.042,2.042,0,0,0,2-2Z"/><path class="b" d="M140.172,190.783c.794,8.352,1.515,16.706,2.347,25.056q.588,5.906,1.1,11.818.23,2.673.436,5.348a2.957,2.957,0,0,0,.045.582c.359,1.172.252-.612.608-.249-.071-.073-.72.054-.837.063q-1.062.078-2.125.149a156.254,156.254,0,0,1-19.735.415,37.379,37.379,0,0,1-9.149-1.587,16.545,16.545,0,0,1-7.6-5.39,18.732,18.732,0,0,1-3.651-8.134c-.439-1.923-.822-3.859-1.165-5.8-.314-1.778-.647-3.9-2.946-3.9-2.328,0-2.635,2.176-2.942,3.969-.336,1.959-.712,3.913-1.157,5.85a17.391,17.391,0,0,1-3.651,7.77c-4.493,5.127-11.67,6.659-18.183,7.214-3.54.3-7.1.4-10.652.363-1.826-.019-3.651-.076-5.474-.186q-1.167-.07-2.331-.174c-1.06-.095.119.385-.068.442a7.75,7.75,0,0,0,.1-1.238Q53.966,223.4,55,213.654q.327-3.058.668-6.116a2.013,2.013,0,0,0-2-2,2.047,2.047,0,0,0-2,2c-.692,6.227-1.349,12.457-1.915,18.7-.244,2.687-.7,5.466-.7,8.164,0,3.855,4.393,3.63,7.15,3.775a101.512,101.512,0,0,0,18.446-.55c6.072-.8,12.4-2.612,16.9-6.969a20.135,20.135,0,0,0,5.194-8.59c.389-1.271.655-2.583.924-3.883q.315-1.527.59-3.063a11.44,11.44,0,0,1,.486-2.777l-.717.718-1.036,0-.718-.717c.359.467.425,2.357.572,3.138q.351,1.871.757,3.729a29.975,29.975,0,0,0,1.412,4.93,22.039,22.039,0,0,0,8.148,9.938c3.383,2.256,7.57,3.071,11.536,3.587a77.525,77.525,0,0,0,11.351.422c4.011-.072,8.019-.28,12.021-.553,1.8-.123,4.087.1,5.339-1.432,1.336-1.633.546-4.5.386-6.432-.752-9.086-1.761-18.147-2.6-27.225-.359-3.884-.652-7.773-1.021-11.657a2.055,2.055,0,0,0-2-2,2.014,2.014,0,0,0-2,2Z"/><path class="b" d="M140.862,124.283c-.876,12.111-1.672,24.235-1.9,36.38-.049,2.575,3.951,2.575,4,0,.228-12.145,1.024-24.269,1.9-36.38.185-2.569-3.816-2.557-4,0Z"/><path class="d" d="M83.844,86.589c-1.253,1.4-2.8,3.454-4.022,4.873a3.881,3.881,0,0,0-.842,3.476c.471.94,5.675,9.285,9.18,11.531,1.108-1.476,5.7-7.843,7.889-10.311C95.226,95.575,84.376,87.019,83.844,86.589Z"/><path class="d" d="M110.166,86.589c1.252,1.4,2.8,3.454,4.022,4.873a3.881,3.881,0,0,1,.841,3.476c-.47.94-5.675,9.285-9.18,11.531-1.107-1.476-5.694-7.843-7.889-10.311C98.783,95.575,109.633,87.019,110.166,86.589Z"/><path class="b" d="M88.815,150.671c-4.3-7.461-8.57-14.946-12.717-22.5q-3.048-5.549-6-11.151-.744-1.419-1.479-2.843c-.184-.355-.417-1.164-.725-1.41q-.195-.505-.129.228c.19-.193.377-.39.562-.589,1.546-1.617,3.16-3.164,4.791-4.7a2.018,2.018,0,0,0-.405-3.141c-1.712-.977-3.53-1.869-5.162-2.975l.718.718-.167-.257.273,1.009c-.021.486.117-.04.237-.239.151-.25.314-.5.485-.734a14.869,14.869,0,0,1,1.013-1.228,34.654,34.654,0,0,1,2.98-2.9,52.762,52.762,0,0,1,6.125-4.59l-2.938-1.2c1.8,7.951,4.106,15.8,6.349,23.636q4.077,14.236,8.43,28.395c1.1,3.572,2.207,7.145,3.408,10.686.823,2.424,4.687,1.384,3.857-1.064-2.514-7.413-4.73-14.934-6.968-22.434-2.849-9.549-5.636-19.118-8.257-28.732C82.055,98.84,81.015,95,80.138,91.123a2.015,2.015,0,0,0-2.938-1.2,49.608,49.608,0,0,0-9.8,7.984c-1.155,1.266-3,3.188-3.015,5.02-.014,1.54,1.263,2.212,2.436,2.881l3.878,2.214-.405-3.141c-1.742,1.634-3.524,3.262-5.119,5.042A4.035,4.035,0,0,0,63.847,113a7.594,7.594,0,0,0,1.113,2.8q3.2,6.2,6.546,12.32c4.5,8.256,9.156,16.429,13.855,24.575,1.286,2.229,4.743.217,3.454-2.019Z"/><path class="b" d="M101.454,106.137c-2.828,0-5.656-.06-8.484-.061a2,2,0,0,0,0,4c2.828,0,5.656.059,8.484.061a2,2,0,1,0,0-4Z"/><path class="b" d="M101.167,102.31c-.334,1.418-.555,2.859-.881,4.279a10.06,10.06,0,0,0-.385,2.962c.11,1.523.37,3.049.559,4.563.741,5.941,1.481,11.882,2.176,17.828a2.061,2.061,0,0,0,2,2,2.012,2.012,0,0,0,2-2c-.683-5.845-1.41-11.685-2.138-17.524-.2-1.57-.441-3.144-.581-4.72a6.367,6.367,0,0,1,.226-2.045c.326-1.421.547-2.861.881-4.28.59-2.5-3.266-3.572-3.857-1.063Z"/><path class="b" d="M91.526,132.352c.852-6,1.718-11.994,2.545-18,.211-1.527.5-3.072.606-4.612a9.427,9.427,0,0,0-.385-2.954,31.736,31.736,0,0,0-1.466-4.634,2.014,2.014,0,0,0-2.737-.717,2.051,2.051,0,0,0-.717,2.736,23.56,23.56,0,0,1,1.168,4.1,5.015,5.015,0,0,1,.114,1.679c-.159,1.508-.355,2.73-.571,4.283-.789,5.687-1.607,11.369-2.414,17.053a2.067,2.067,0,0,0,1.4,2.46,2.014,2.014,0,0,0,2.46-1.4Z"/><path class="b" d="M82.429,85.174c-1.061,1.2-2.041,2.469-3.052,3.711a9.867,9.867,0,0,0-2.366,3.827c-.513,2.1.386,3.571,1.457,5.234q1.854,2.88,3.977,5.574a20.879,20.879,0,0,0,4.706,4.676,2.047,2.047,0,0,0,2.736-.718c2.49-3.327,4.829-6.791,7.576-9.906a2.038,2.038,0,0,0-.4-3.141c-.247-.178-.486-.367-.728-.553.539.413-.271-.211-.4-.312l-.744-.58q-2.012-1.571-4.016-3.149c-1.972-1.551-3.957-3.088-5.911-4.663a2.062,2.062,0,0,0-2.829,0,2.016,2.016,0,0,0,0,2.829c4.144,3.34,8.286,6.778,12.61,9.882l-.4-3.141c-2.973,3.37-5.512,7.122-8.2,10.715l2.737-.717a10.876,10.876,0,0,1-1.694-1.5c-.666-.689-1.29-1.418-1.891-2.164-1.185-1.47-2.3-3.071-3.35-4.673-.376-.575-.747-1.154-1.1-1.742-.105-.174-.218-.347-.31-.528a.941.941,0,0,1-.094-.17c.126.5.125-.159.129-.168a4.947,4.947,0,0,1,.565-1.143c.376-.5.8-.965,1.191-1.451.87-1.078,1.727-2.167,2.645-3.2a2.048,2.048,0,0,0,0-2.829A2.021,2.021,0,0,0,82.429,85.174Z"/><path class="b" d="M108.649,152.69c4.7-8.146,9.352-16.319,13.854-24.575q3.341-6.125,6.546-12.32a7.575,7.575,0,0,0,1.114-2.8,4.027,4.027,0,0,0-1.328-3.071c-1.606-1.773-3.376-3.406-5.119-5.042l-.4,3.141,3.674-2.1c1.151-.657,2.609-1.319,2.645-2.862.044-1.89-1.834-3.856-3.021-5.156a49.573,49.573,0,0,0-9.8-7.984,2.015,2.015,0,0,0-2.938,1.2c-1.839,8.139-4.122,16.189-6.37,24.222-2.662,9.515-5.4,19.014-8.378,28.436-1.066,3.373-2.115,6.776-3.439,10.059a2.014,2.014,0,0,0,1.4,2.461,2.049,2.049,0,0,0,2.46-1.4c2.858-7.088,4.877-14.574,7.042-21.892q4.288-14.489,8.19-29.09c1.036-3.9,2.066-7.8,2.955-11.735l-2.938,1.2a53.059,53.059,0,0,1,6.126,4.59,34.981,34.981,0,0,1,2.865,2.768,15.5,15.5,0,0,1,1.127,1.355c.172.238.334.484.486.734.107.178.26.783.236.239l.273-1.009-.166.257.717-.718c-1.631,1.106-3.45,2-5.162,2.975a2.018,2.018,0,0,0-.405,3.141c1.631,1.531,3.244,3.079,4.792,4.7.184.2.371.4.562.589l-.026-.429a7.587,7.587,0,0,1-.828,1.611q-.735,1.423-1.48,2.843-2.94,5.606-5.995,11.151c-4.147,7.551-8.413,15.036-12.717,22.5-1.289,2.234,2.166,4.251,3.454,2.019Z"/><path class="b" d="M108.752,88c.917,1.038,1.774,2.127,2.644,3.2a8.234,8.234,0,0,1,1.745,2.567c.023.071.068.545.089.282.013-.156.02-.051-.024.051a5,5,0,0,1-.329.56c-.355.588-.726,1.167-1.1,1.742-1.026,1.565-2.119,3.138-3.271,4.575-.625.78-1.274,1.544-1.969,2.262-.3.309-.606.611-.927.9-.147.131-.3.262-.45.384.3-.237-.258.175-.317.214l2.736.717c-2.69-3.593-5.229-7.345-8.2-10.715l-.405,3.141c4.324-3.1,8.466-6.542,12.61-9.882a2.014,2.014,0,0,0,0-2.829,2.048,2.048,0,0,0-2.828,0c-1.954,1.575-3.939,3.112-5.912,4.663q-2.006,1.578-4.016,3.149l-.744.58c-.139.108-.941.727-.4.312-.242.186-.481.375-.728.553a2.039,2.039,0,0,0-.4,3.141c2.747,3.115,5.086,6.579,7.576,9.906a2.04,2.04,0,0,0,2.737.718,20.92,20.92,0,0,0,4.706-4.676q2.121-2.689,3.977-5.574c1.071-1.664,1.97-3.132,1.457-5.234a9.941,9.941,0,0,0-2.366-3.827c-1.012-1.242-1.992-2.51-3.053-3.711A2,2,0,0,0,108.752,88Z"/><path class="b" d="M120.834,96.682c6.489,2.486,13.271,4.435,19.521,7.5a26.566,26.566,0,0,1,7.916,5.456,25.434,25.434,0,0,1,5.6,10.847c2.387,8.725,4.617,17.546,6.414,26.413q1.158,5.71,1.985,11.48a78.96,78.96,0,0,1,1.237,12.014c-.054,4.345-.9,9.024-3.787,12.438a16.454,16.454,0,0,1-12.426,5.907c-2.571.037-2.579,4.037,0,4a20.387,20.387,0,0,0,13.3-5.014,20.83,20.83,0,0,0,6.26-11.012c.943-4.5.609-8.883.066-13.4-.515-4.285-1.125-8.56-1.883-12.809-1.612-9.037-3.9-17.937-6.209-26.814-1.2-4.618-2.333-9.243-4.947-13.309a25.815,25.815,0,0,0-8.983-8.26c-7.095-4.2-15.331-6.361-22.992-9.3a2.016,2.016,0,0,0-2.46,1.4,2.046,2.046,0,0,0,1.4,2.461Z"/><path class="d" d="M76.548,157.69c-.372.319-.77.686-1.2,1.108.878,7.352,1.8,15.26,2.6,22.28l5.315-2.749,1.962-1.015c1.878-.972,3.167-1.73,4.755-2.6-2.107,2.2-3.117,3.045-5.97,6.154A3.026,3.026,0,0,0,83.719,184c.951,1.388,2.949.824,3.486.537,3.743-2.009,6.738-4.3,10.147-5.588a32.356,32.356,0,0,0,9.742.5c.859-6.466,1.809-14.956,2.369-19.858-3.276.79-6.627-.947-9.656-2.491q-2.753-1.4-5.582-2.652a17.139,17.139,0,0,0-3.048-1.1,12.5,12.5,0,0,0-7.655.97C80.733,155.522,79.374,155.264,76.548,157.69Z"/><path class="b" d="M33.512,170.156a272.89,272.89,0,0,1,5.39-33.483c.8-3.431,1.662-6.848,2.549-10.258a55.608,55.608,0,0,1,2.782-9.023,20.381,20.381,0,0,1,5.16-7.119c.9-.789-.272.166.292-.228.182-.127.368-.249.555-.37.384-.249.773-.489,1.164-.726q1.633-.988,3.306-1.912a141.274,141.274,0,0,1,16.805-8.022,2.059,2.059,0,0,0,1.4-2.46,2.014,2.014,0,0,0-2.46-1.4,173.006,173.006,0,0,0-16.724,7.867,61.5,61.5,0,0,0-5.707,3.326,19.858,19.858,0,0,0-5.846,6.35,35.739,35.739,0,0,0-3.655,9c-.974,3.546-1.838,7.132-2.71,10.7-1.441,5.905-2.733,11.846-3.731,17.843-1.1,6.6-1.859,13.253-2.567,19.905a2.013,2.013,0,0,0,2,2,2.045,2.045,0,0,0,2-2Z"/><path class="d" d="M4.425,127.526c14.344,2.445,54.831,9.429,67,11.688a2.124,2.124,0,0,1,1.72,1.817c1.628,12.351,4.326,35.784,5.91,49.754a2.127,2.127,0,0,1-2.455,2.343c-16.012-2.592-54.681-9.979-66.018-12.469a2.121,2.121,0,0,1-1.639-1.71C6.8,166.8,3.218,139.233,1.953,129.912A2.129,2.129,0,0,1,4.425,127.526Z"/><path class="b" d="M3.893,129.455q22.768,3.88,45.519,7.865c6.684,1.17,13.368,2.336,20.043,3.557a5.836,5.836,0,0,1,1.44.265c.52.269.431,1.259.518,1.936q.392,3.029.764,6.059.9,7.307,1.76,14.62.879,7.455,1.736,14.913.406,3.531.809,7.062.185,1.615.368,3.233.071.612.14,1.224c.022.2.171.76.079.941.085-.168-.2.091,0,0-.383.182-1.332-.156-1.739-.224q-1.228-.2-2.454-.413-2.562-.438-5.121-.891-6.008-1.061-12.007-2.17-12.876-2.371-25.728-4.875-5.535-1.078-11.065-2.19-2.157-.436-4.312-.883a21.762,21.762,0,0,1-3.378-.718c-.428-.168-.26.1-.387-.344a10.542,10.542,0,0,1-.2-1.132q-.213-1.244-.413-2.49-.464-2.867-.893-5.738Q8.4,162.593,7.5,156.115C6.4,148.18,5.34,140.239,4.275,132.3q-.15-1.108-.3-2.217c-.08-.593-.219-.618.449-.555a2.014,2.014,0,0,0,2-2,2.044,2.044,0,0,0-2-2c-2.978-.283-4.742,2.388-4.378,5.087l.123.9q.039.294.079.587c-.042-.312.005.041.011.087q.169,1.262.338,2.523.842,6.3,1.692,12.591c1.237,9.124,2.48,18.25,3.924,27.343a32.133,32.133,0,0,0,.943,5.289c.712,2.08,2.565,2.584,4.473,2.991,3.1.659,6.2,1.284,9.3,1.9q13.078,2.609,26.19,5.049c8.3,1.556,16.6,3.09,24.928,4.507a23.03,23.03,0,0,0,5.228.743,4.148,4.148,0,0,0,3.248-2.054,5.807,5.807,0,0,0,.358-3.8q-.837-7.365-1.689-14.727c-1.176-10.157-2.358-20.314-3.654-30.457-.282-2.209-.179-4.987-2.333-6.287a12.351,12.351,0,0,0-4.149-1.049q-4.962-.9-9.929-1.771Q34.1,130.565,9.037,126.3l-4.081-.7A2.059,2.059,0,0,0,2.5,127,2.016,2.016,0,0,0,3.893,129.455Z"/><path class="b" d="M79.986,193.9c1.1-.913,2.116-1.922,3.144-2.91,1.659-1.6,3.3-3.212,4.936-4.83a2,2,0,0,0-2.829-2.829q-2.456,2.429-4.936,4.83c-1.027.988-2.048,2-3.144,2.91a2.009,2.009,0,0,0,0,2.829,2.056,2.056,0,0,0,2.829,0Z"/><path class="d" d="M28.992,171.833a2.83,2.83,0,0,0-2.519-2.361,3.879,3.879,0,0,0-3.924,2.225,45.928,45.928,0,0,0-1.508,11.1c-.157,3.83,3.281,7.762,6.948,8.72,1.865.7,12.451,2.377,15.739,1.856,1.76.42,5.336-1.07,5.912-2.786s.266-5.352.279-9.01c.008-2.57-.844-3.567-2.335-4.435a3.193,3.193,0,0,0-4.012.723c.356-1.994.838-6.59-3.082-7.107a3.1,3.1,0,0,0-3.69,2.016c.1-2.685-.821-5.127-3.551-5.5s-4.055,2.634-4.179,3.746"/><path class="b" d="M45.317,178.912c.726-.574,1.755.172,2.123.606.6.711.472,2.345.488,3.528.025,1.767.115,3.541.033,5.309a5.264,5.264,0,0,1-.218,1.595c-.01.024-.1.12-.085.108a3.644,3.644,0,0,1-.573.474,5.035,5.035,0,0,1-2.953.9c.532.028-1.226.033-.811-.007.3-.028-.249.016-.354.022-.448.027-.9.026-1.346.018a55.5,55.5,0,0,1-6.953-.658,31.657,31.657,0,0,1-6.147-1.221,2.019,2.019,0,0,0-2.461,1.4,2.042,2.042,0,0,0,1.4,2.46,38.038,38.038,0,0,0,7.868,1.46,32.789,32.789,0,0,0,8.935.4H43.2a8.531,8.531,0,0,0,7.121-2.244c2.038-1.935,1.7-5.2,1.653-7.765-.053-2.845.454-6.355-1.7-8.6a5.619,5.619,0,0,0-7.779-.606,2.012,2.012,0,0,0,0,2.829,2.05,2.05,0,0,0,2.828,0Z"/><path class="b" d="M45.241,185.738q.184-4.314.475-8.622c.163-2.375.1-4.923-1.654-6.755a5.865,5.865,0,0,0-7.712-.4c-1.537,1.336-1.725,3.22-1.976,5.109-.4,2.994-.585,6-.824,9.014a2.016,2.016,0,0,0,2,2,2.041,2.041,0,0,0,2-2c.176-2.216.315-4.434.544-6.646a35.644,35.644,0,0,1,.467-3.535c.027-.134.065-.264.1-.4.1-.4.151-.017-.05.069.06-.026.151-.308.187-.368.136-.233.3-.312.022-.066.123-.11.241-.237.361-.352-.269.256-.1.1.117-.021s-.332.083-.056.033c.133-.024.266-.073.4-.1-.423.083.3.015.414.016-.007,0,.34.033.165.008-.2-.027.208.048.247.057.136.034.612.249.308.085.1.055.2.115.3.17.416.229-.124-.137.048.042l.222.231c.194.206-.162-.272-.028-.024.089.163.187.318.267.487-.2-.409.031.144.068.28q.042.157.075.318c.012.057.083.513.045.22-.034-.256.02.3.025.39.011.216.013.433.01.65-.008.536-.058,1.072-.095,1.608q-.289,4.248-.467,8.5a2,2,0,0,0,4,0Z"/><path class="b" d="M38.794,172.912a8.263,8.263,0,0,0-1.644-5.7,5.724,5.724,0,0,0-5.714-1.8,6.113,6.113,0,0,0-3.787,3.513,16.275,16.275,0,0,0-.882,5.494c-.183,2.606-.294,5.216-.462,7.823a2,2,0,0,0,4,0c.158-2.454.267-4.912.43-7.366.071-1.061.154-2.121.262-3.178.015-.152.031-.305.048-.457q.058-.523-.02.126a2.492,2.492,0,0,0,.072-.306c.044-.16.105-.313.158-.469-.174.521,0,.025.06-.1.082-.157.17-.31.266-.458.057-.088.116-.174.178-.258q-.228.293-.011.034c.116-.11.228-.228.343-.34-.323.315.161-.089.264-.154.356-.221-.278.033.145-.047.228-.048.224-.055-.013-.024a3.277,3.277,0,0,1,.371-.012c.381-.019-.091-.071.262.034.093.027.759.3.41.113.063.033.555.353.388.221s.25.263.3.311c-.29-.315.122.207.174.3.031.057.221.549.089.168a6.873,6.873,0,0,1,.209.7c.021.091.11.573.059.221a8.85,8.85,0,0,1,.05,1.6,2,2,0,0,0,4,0Z"/><path class="b" d="M30.92,171.3c-.581-3.579-4.98-4.7-7.809-3.054-3.121,1.821-3.313,5.992-3.689,9.222-.393,3.375-.829,6.854.759,9.987a12.014,12.014,0,0,0,7.276,5.985c2.481.7,3.54-3.155,1.064-3.857a7.923,7.923,0,0,1-4.483-3.436c-1.233-1.979-1-3.983-.842-6.222.09-1.262.208-2.523.411-3.773q.166-1.035.394-2.06a7.776,7.776,0,0,1,.476-1.865c-.12.226.325-.31.4-.365a2.017,2.017,0,0,1,.993-.435,1.027,1.027,0,0,1,1.2.936,2.016,2.016,0,0,0,2.461,1.4,2.048,2.048,0,0,0,1.4-2.46Z"/><path class="b" d="M78.658,158.547a27.682,27.682,0,0,1,6.41-2.7,10.418,10.418,0,0,1,8.151.329c2.719,1.186,5.316,2.614,8.008,3.852,2.809,1.291,5.668,2.133,8.763,1.489,2.519-.523,1.453-4.38-1.063-3.857-2.848.592-5.662-1.051-8.109-2.288a48.388,48.388,0,0,0-8.66-3.838,13.815,13.815,0,0,0-8.564.609c-2.338.905-4.865,1.521-6.955,2.949-2.113,1.443-.114,4.911,2.019,3.454Z"/><path class="b" d="M81.484,161.205l-4.846,2.446a2,2,0,0,0,.478,3.656,2.193,2.193,0,0,0,1.541-.2l4.846-2.447A2,2,0,0,0,83.025,161a2.193,2.193,0,0,0-1.541.2Z"/><path class="b" d="M80.238,174.264c2.611-1.6,5.35-2.982,8.083-4.357a2.013,2.013,0,0,0,.717-2.736,2.048,2.048,0,0,0-2.736-.718c-2.733,1.375-5.472,2.76-8.083,4.357a2,2,0,1,0,2.019,3.454Z"/><path class="b" d="M81.811,181.33c1.923-1,3.858-1.968,5.763-3,1.7-.922,3.383-1.893,5.1-2.786a2.014,2.014,0,0,0,.718-2.736,2.046,2.046,0,0,0-2.736-.718c-1.721.893-3.4,1.864-5.1,2.786-1.905,1.028-3.84,2-5.763,3a2.014,2.014,0,0,0-.717,2.736,2.046,2.046,0,0,0,2.736.718Z"/><path class="b" d="M96.917,180.9a34.734,34.734,0,0,0,10.182.542,2.048,2.048,0,0,0,2-2,2.021,2.021,0,0,0-2-2,30.483,30.483,0,0,1-4.918.126c-.751-.042-1.5-.115-2.245-.2q-.351-.045.025,0c-.084-.012-.168-.023-.252-.036q-.291-.042-.582-.089-.574-.093-1.147-.2a2,2,0,0,0-1.063,3.857Z"/><path class="b" d="M87.685,174.215c-1.092,1.108-2.206,2.194-3.283,3.317a19.007,19.007,0,0,0-2.231,2.476,5.156,5.156,0,0,0-.762,3.019,4.107,4.107,0,0,0,4.582,3.847c2.08-.2,3.838-1.5,5.58-2.556,1.071-.651,2.136-1.311,3.228-1.927.525-.3,1.057-.583,1.6-.851.584-.29,1-.475,1.461-.653a2.059,2.059,0,0,0,1.4-2.461,2.014,2.014,0,0,0-2.46-1.4,42.638,42.638,0,0,0-6.728,3.521c-1.056.643-2.113,1.285-3.193,1.887-.061.034-.749.38-.743.4.347-.141.419-.172.216-.1-.072.025-.146.048-.22.069-.138.04-.7.1-.135.059-.2.014-.4.014-.6.015q.411.069.071,0-.321-.1.032.042-.282-.172,0,.046-.228-.24-.039.011-.167-.3-.014.024-.076-.342-.023.014c-.01-.12.081-.794-.012-.369.025-.117.273-.761.053-.323.068-.134.326-.474-.024-.049.405-.491.872-.944,1.31-1.407,1.233-1.3,2.517-2.557,3.777-3.836a2,2,0,0,0-2.828-2.828Z"/><path class="b" d="M147.289,188.738a141.387,141.387,0,0,1-32.985-3.1c-1.988-.416-3.969-.873-5.935-1.387-.529-.138-.639-.382-.31.385.4.944.164.445.3.067a5.4,5.4,0,0,0,.148-.981q.206-1.383.391-2.769c.568-4.189,1.072-8.386,1.561-12.584q.378-3.254.746-6.508.15-1.319.3-2.638c.039-.349.079-.7.12-1.048.017-.155.029-.312.053-.466l.031-.262c.021-.259.032-.22.033.12l-.718.717-.182-.031.492.067c.327.043.654.089.98.134l1.948.27q1.925.268,3.848.542,3.873.552,7.744,1.126,7.293,1.078,14.578,2.2a2.065,2.065,0,0,0,2.46-1.4,2.015,2.015,0,0,0-1.4-2.46c-8.394-1.285-16.791-2.557-25.2-3.736q-1.579-.22-3.16-.438a7.474,7.474,0,0,0-3.4-.123c-1.654.562-1.92,2.125-2.094,3.638-.277,2.4-.545,4.8-.82,7.2-.665,5.8-1.31,11.609-2.166,17.385-.211,1.428-.685,2.982.332,4.215.971,1.178,2.78,1.361,4.19,1.7,3.2.777,6.441,1.428,9.692,1.982a144.4,144.4,0,0,0,28.427,2.182c2.569-.074,2.58-4.075,0-4Z"/></svg>